<?xml version="1.0" standalone="no"?>
<!DOCTYPE svg PUBLIC "-//W3C//DTD SVG 20010904//EN"
 "http://www.w3.org/TR/2001/REC-SVG-20010904/DTD/svg10.dtd">
<svg version="1.0" xmlns="http://www.w3.org/2000/svg"
 width="512.000000pt" height="512.000000pt" viewBox="0 0 512.000000 512.000000"
 preserveAspectRatio="xMidYMid meet">
<metadata>
Created by potrace 1.11, written by Peter Selinger 2001-2013
</metadata>
<g transform="translate(0.000000,512.000000) scale(0.100000,-0.100000)"
fill="#000000" stroke="none">
<path d="M0 2560 l0 -2560 2560 0 2560 0 0 2560 0 2560 -2560 0 -2560 0 0
-2560z m2886 765 l24 -25 -2 -1152 -3 -1153 -23 -70 c-76 -224 -220 -394 -417
-491 -209 -102 -470 -104 -684 -4 -262 123 -445 397 -453 676 -1 68 1 77 24
100 29 30 76 34 112 10 28 -18 32 -30 41 -127 35 -371 401 -631 759 -539 220
56 386 217 453 440 15 50 18 168 23 1188 l5 1134 24 19 c33 27 86 25 117 -6z
m1329 -9 c302 -102 505 -351 545 -670 13 -108 0 -148 -54 -166 -65 -21 -116
23 -116 101 0 101 -48 240 -116 336 -80 112 -201 198 -339 239 -94 28 -248 24
-351 -9 -202 -66 -355 -229 -409 -436 -21 -83 -21 -219 0 -302 54 -206 208
-371 407 -434 53 -17 121 -28 209 -35 203 -15 334 -63 474 -173 164 -128 268
-316 295 -530 35 -284 -101 -580 -343 -746 -228 -156 -541 -178 -791 -56 -251
122 -424 375 -443 648 -7 95 3 122 49 141 75 32 114 -7 127 -128 14 -120 43
-202 103 -292 139 -208 395 -311 642 -259 226 48 423 245 471 471 52 247 -51
503 -258 642 -104 69 -173 90 -355 108 -174 17 -269 43 -377 103 -139 78 -250
195 -320 336 -65 133 -79 196 -79 355 0 159 14 222 79 355 105 213 302 366
540 421 41 9 104 12 195 10 114 -3 148 -8 215 -30z"/>
</g>
</svg>
